FFmpeg version SVN-r25716, Copyright (c) 2000-2010 the FFmpeg developers  built on Nov 10 2010 12:23:18 with gcc 4.1.2 20080704 (Red Hat 4.1.2-48)  configuration: --enable-libmp3lame --enable-shared --disable-mmx --arch=x86_64  libavutil     50.33. 0 / 50.33. 0  libavcore      0.12. 1 /  0.12. 1  libavcodec    52.94. 4 / 52.94. 4  libavformat   52.84. 0 / 52.84. 0  libavdevice   52. 2. 2 / 52. 2. 2  libavfilter    1.59. 0 /  1.59. 0  libswscale     0.12. 0 /  0.12. 0Seems stream 0 codec frame rate differs from container frame rate: 1200.00 (1200/1) -> 6.00 (6/1)Input #0, mov,mp4,m4a,3gp,3g2,mj2, from '/RAID10/data/converted_video_files/35617.mov':  Metadata:    major_brand     : qt      minor_version   : 537199360    compatible_brands: qt    Duration: 00:00:55.83, start: 0.000000, bitrate: 996 kb/s    Stream #0.0(eng): Video: h264, yuv420p, 518x396, 995 kb/s, 6 fps, 6 tbr, 600 tbn, 1200 tbc[buffer @ 0x91f50c0] w:518 h:396 pixfmt:yuv420pOutput #0, flv, to '/RAID10/data/converted_video_files/35617.flv':  Metadata:    encoder         : Lavf52.84.0    Stream #0.0(eng): Video: flv, yuv420p, 518x396, q=2-31, 600 kb/s, 1k tbn, 24 tbcStream mapping:  Stream #0.0 -> #0.0Press [q] to stop encodingframe=   24 fps=  0 q=8.4 size=     210kB time=3.88 bitrate= 444.5kbits/s    frame=   46 fps= 44 q=7.9 size=     335kB time=7.54 bitrate= 363.6kbits/s    frame=   72 fps= 46 q=7.4 size=     512kB time=11.88 bitrate= 353.5kbits/s    frame=  109 fps= 51 q=5.1 size=     810kB time=18.04 bitrate= 367.6kbits/s    frame=  137 fps= 53 q=5.0 size=    1031kB time=22.71 bitrate= 371.8kbits/s    frame=  172 fps= 56 q=4.3 size=    1322kB time=28.54 bitrate= 379.4kbits/s    frame=  210 fps= 59 q=3.8 size=    1652kB time=34.88 bitrate= 388.0kbits/s    frame=  254 fps= 62 q=3.5 size=    2108kB time=42.21 bitrate= 409.2kbits/s    frame=  294 fps= 64 q=4.0 size=    2556kB time=48.88 bitrate= 428.5kbits/s    frame=  323 fps= 63 q=4.1 size=    2925kB time=53.71 bitrate= 446.2kbits/s    frame=  335 fps= 64 q=4.1 Lsize=    3076kB time=55.71 bitrate= 452.3kbits/s    video:3070kB audio:0kB global headers:0kB muxing overhead 0.177159%